<svg xmlns="http://www.w3.org/2000/svg" version="1.1" xmlns:xlink="http://www.w3.org/1999/xlink" width="1500" height="114" viewBox="0 0 1500 114"><svg xml:space="preserve" width="1500" height="114" data-version="2" data-id="lg_2JdtWYpp9mbTIDDFV3" viewBox="0 0 556 114" x="0" y="0"><rect width="100%" height="100%" fill="transparent"></rect><path fill="#2563eb" d="M61.27 1.236a55.764 55.764 0 1 0 0 111.528 55.764 55.764 0 1 0 0-111.528"></path><rect width="420" height="107.35" x="-210" y="-53.675" fill="none" rx="0" ry="0" transform="translate(340.03 56.18)"></rect><path fill="#2563eb" d="M144.92 86.02h-10.67q-.47 0-.47-.47l.19-65.26q0-.37.37-.37h30.43q.46 0 .46.37V31q0 .37-.37.37h-19.48v14.76h19.48q.37 0 .37.46l.1 10.76q0 .37-.47.37h-19.48v27.83q0 .47-.46.47m59.93 0h-30.71q-.37 0-.37-.47l.09-65.17q0-.46.47-.46h10.57q.47 0 .47.46l-.1 53.95h19.58q.46 0 .46.46v10.76q0 .47-.46.47m24.21.93q-5.05 0-9.32-2.6-4.22-2.6-6.8-6.94-2.57-4.33-2.57-9.53l.09-30.1q0-5.29 2.55-9.51 2.51-4.27 6.77-6.85 4.27-2.57 9.28-2.57 5.2 0 9.33 2.55 4.17 2.55 6.7 6.84t2.53 9.54l.09 30.1q0 5.2-2.51 9.51-2.55 4.36-6.77 6.96t-9.37 2.6m0-11.46q2.88 0 5.01-2.34 2.14-2.35 2.14-5.27l-.1-30.1q0-3.16-1.99-5.34-2-2.18-5.06-2.18-2.92 0-5.01 2.14-2.09 2.13-2.09 5.38v30.1q0 3.11 2.09 5.36t5.01 2.25m46.07 10.53h-11.5q-.42 0-.46-.47l-11.23-65.26q-.09-.37.28-.37h10.67q.37 0 .46.37l6.08 42.91 6.26-42.91q.09-.37.56-.37h8.58q.37 0 .46.37l6.17 42.91 6.17-42.91q.09-.37.47-.37h10.57q.47 0 .37.37l-11.32 65.26q-.04.19-.27.33l-.19.14h-11.5q-.28 0-.47-.47l-4.87-34.09-4.82 34.09q-.05.47-.47.47m56.86 0h-17.02q-.37 0-.37-.47l.18-65.26q0-.37.38-.37h18.27q5.34 0 9.7 2.59 4.26 2.6 6.72 6.89t2.46 9.3q0 4.09-1.85 7.61-1.86 3.53-4.41 5.71 2.74 2.73 4.27 6.35t1.53 7.61q0 5.52-2.65 10.07-2.69 4.54-7.19 7.25-4.5 2.72-10.02 2.72m1.44-54.83h-7.23v14.94h7.23q3.3 0 5.34-2.35 2.04-2.34 2.04-5.08 0-3.01-2.18-5.26t-5.2-2.25m-1.44 26.44h-5.79l-.1 16.79h5.89q3.44 0 5.89-2.5 2.46-2.51 2.46-5.94t-2.46-5.89q-2.45-2.46-5.89-2.46m44.26 29.32q-5.06 0-9.33-2.6-4.22-2.6-6.79-6.94-2.58-4.33-2.58-9.53l.1-30.1q0-5.29 2.55-9.51 2.5-4.27 6.77-6.85 4.27-2.57 9.28-2.57 5.19 0 9.32 2.55 4.18 2.55 6.7 6.84 2.53 4.29 2.53 9.54l.09 30.1q0 5.2-2.5 9.51-2.55 4.36-6.77 6.96t-9.37 2.6m0-11.46q2.87 0 5.01-2.34 2.13-2.35 2.13-5.27l-.09-30.1q0-3.16-2-5.34-1.99-2.18-5.05-2.18-2.93 0-5.01 2.14-2.09 2.13-2.09 5.38v30.1q0 3.11 2.09 5.36 2.08 2.25 5.01 2.25m22.6 10.06 11.78-65.26q.09-.37.46-.37h13.78q.37 0 .46.37l11.32 65.26q.05.47-.37.47h-10.53q-.46 0-.51-.47l-1.02-6.95h-12.94l-1.02 6.95q-.05.47-.47.47h-10.57q-.37 0-.37-.47m23.47-17.11-3.9-26.67-.55-3.53-.42 3.53-4.27 26.67zm31.4 17.58h-10.76q-.37 0-.37-.47l.19-65.26q0-.37.37-.37h19.2q5.15 0 9.46 2.5 4.32 2.51 6.89 6.73 2.58 4.22 2.58 9.55 0 3.48-1.07 6.31t-2.48 4.78q-1.42 1.95-2.58 2.88 5.15 5.7 5.15 13.4l.09 19.48q0 .47-.46.47h-10.76q-.37 0-.37-.28V66.07q0-3.43-2.41-5.94-2.42-2.5-5.94-2.5h-6.26l-.1 27.92q0 .47-.37.47m8.63-54.74h-8.16v14.94h8.16q2.92 0 5.22-2.18t2.3-5.34q0-3.01-2.23-5.21-2.23-2.21-5.29-2.21m43.5 54.65-17.02.09q-.47 0-.47-.47l.19-65.26q0-.37.37-.37l17.77-.1q5.28-.13 9.55 2.42 4.32 2.55 6.89 6.88 2.57 4.34 2.57 9.58v27.28q0 5.47-2.64 10.02-2.69 4.5-7.14 7.17-4.46 2.66-10.07 2.76m.84-54.74-6.64.09-.09 43.05h5.89q3.53 0 5.94-2.46t2.41-5.89V38.61q0-3.01-2.23-5.26-2.22-2.25-5.28-2.16"></path><rect width="28" height="71.19" x="-14" y="-35.595" fill="none" rx="0" ry="0" transform="translate(62.17 57.02)"></rect><path fill="#fff" d="M60.13 78.13h-7.08q-.31 0-.31-.31l.13-43.28q0-.25.24-.25h20.18q.31 0 .31.25v7.1q0 .25-.24.25H60.44v9.78h12.92q.24 0 .24.31l.06 7.14q0 .24-.3.24H60.44v18.46q0 .31-.31.31" paint-order="stroke"></path></svg></svg>